# xmcd
#
# Track frame offsets:
#	150
#	16439
#	34830
#	53130
#	64961
#	83937
#	100237
#	116684
#	136716
#	152371
#
# Disc length: 2242 seconds
#
# Revision: 1
# Processed by: cddbd v1.4PL0 Copyright (c) Steve Scherf et al.
# Submitted via: audiograbber 1.80
#
DISCID=7b08c00a
DTITLE=Sound Doctrine - The Well Of Bethlehem
DYEAR=1900
DGENRE=
TTITLE0=Refiner's Fire
TTITLE1=Bedside Prayers
TTITLE2=The Well Of Bethlehem
TTITLE3=A Little Faith
TTITLE4=The Man Who Calmed The Storm
TTITLE5=Sweet By And By
TTITLE6=Love Instead Of Nails
TTITLE7=Where Did They Lay Him?
TTITLE8=Who Is This?
TTITLE9=Don't Leave Him Hanging
EXTD=Gospel
EXTT0=
EXTT1=
EXTT2=
EXTT3=
EXTT4=
EXTT5=
EXTT6=
EXTT7=
EXTT8=
EXTT9=
PLAYORDER=
